shantell--extrabold--organic.ufo
<glyph name="quotedbl" format="2">
	<unicode hex="0022"/>
	<advance width="548"/>
	<outline>
		<contour>
			<point x="130" y="436.2179610779" type="curve" smooth="yes"/>
			<point x="168" y="436.2179610779"/>
			<point x="194" y="457.2179610779"/>
			<point x="208" y="496.2179610779" type="curve" smooth="yes"/>
			<point x="237" y="578.2179610779"/>
			<point x="246" y="677.2179610779"/>
			<point x="232" y="743.2179610779" type="curve" smooth="yes"/>
			<point x="224" y="778.2179610779"/>
			<point x="187" y="804.2179610779"/>
			<point x="147" y="804.2179610779" type="curve" smooth="yes"/>
			<point x="97" y="804.2179610779"/>
			<point x="58" y="758.2179610779"/>
			<point x="64" y="710.2179610779" type="curve" smooth="yes"/>
			<point x="70" y="658.2179610779"/>
			<point x="61" y="594.2179610779"/>
			<point x="46" y="550.2179610779" type="curve" smooth="yes"/>
			<point x="31" y="505.2179610779"/>
			<point x="73" y="436.2179610779"/>
		</contour>
		<contour>
			<point x="397" y="436.2179610779" type="curve" smooth="yes"/>
			<point x="435" y="436.2179610779"/>
			<point x="461" y="457.2179610779"/>
			<point x="475" y="496.2179610779" type="curve" smooth="yes"/>
			<point x="504" y="578.2179610779"/>
			<point x="513" y="677.2179610779"/>
			<point x="499" y="743.2179610779" type="curve" smooth="yes"/>
			<point x="491" y="778.2179610779"/>
			<point x="454" y="804.2179610779"/>
			<point x="414" y="804.2179610779" type="curve" smooth="yes"/>
			<point x="364" y="804.2179610779"/>
			<point x="329" y="758.2179610779"/>
			<point x="331" y="710.2179610779" type="curve" smooth="yes"/>
			<point x="333.0496245626" y="656.9277224504"/>
			<point x="323" y="594.2179610779"/>
			<point x="312" y="534.2179610779" type="curve" smooth="yes"/>
			<point x="302" y="478.2179610779"/>
			<point x="341" y="436.2179610779"/>
		</contour>
	</outline>
</glyph>
<glyph name="dollar" format="2">
	<unicode hex="0024"/>
	<advance width="603"/>
	<outline>
		<contour>
			<point x="262" y="-117.2545536882" type="curve" smooth="yes"/>
			<point x="459" y="-117.2545536882"/>
			<point x="556" y="-62.2545536882"/>
			<point x="556" y="59.7454463118" type="curve" smooth="yes"/>
			<point x="556" y="253.7454463118"/>
			<point x="226" y="276.7454463118"/>
			<point x="226" y="342.7454463118" type="curve" smooth="yes"/>
			<point x="226" y="395.7454463118"/>
			<point x="312" y="421.7454463118"/>
			<point x="488" y="431.7454463118" type="curve" smooth="yes"/>
			<point x="529" y="433.7454463118"/>
			<point x="554" y="467.7454463118"/>
			<point x="554" y="506.7454463118" type="curve" smooth="yes"/>
			<point x="554" y="555.7454463118"/>
			<point x="530" y="601.7454463118"/>
			<point x="458" y="601.7454463118" type="curve" smooth="yes"/>
			<point x="329" y="601.7454463118"/>
			<point x="47" y="530.7454463118"/>
			<point x="47" y="346.7454463118" type="curve" smooth="yes"/>
			<point x="47" y="148.7454463118"/>
			<point x="382.9327678114" y="185.1152233492"/>
			<point x="405" y="63.7454463118" type="curve"/>
			<point x="350.4439060533" y="50.4095122359"/>
			<point x="318.1044776119" y="49.7454463118"/>
			<point x="241" y="49.7454463118" type="curve" smooth="yes"/>
			<point x="166" y="49.7454463118"/>
			<point x="148" y="76.7454463118"/>
			<point x="112" y="76.7454463118" type="curve" smooth="yes"/>
			<point x="70" y="76.7454463118"/>
			<point x="60" y="55.7454463118"/>
			<point x="60" y="20.7454463118" type="curve" smooth="yes"/>
			<point x="60" y="-49.2545536882"/>
			<point x="131" y="-117.2545536882"/>
		</contour>
		<contour>
			<point x="321" y="339.7454463118" type="curve" smooth="yes"/>
			<point x="353" y="339.7454463118"/>
			<point x="371" y="361.7454463118"/>
			<point x="383" y="403.7454463118" type="curve" smooth="yes"/>
			<point x="407" y="495.7454463118"/>
			<point x="407" y="579.7454463118"/>
			<point x="392" y="651.7454463118" type="curve" smooth="yes"/>
			<point x="383" y="686.7454463118"/>
			<point x="347" y="712.7454463118"/>
			<point x="307" y="712.7454463118" type="curve" smooth="yes"/>
			<point x="257" y="712.7454463118"/>
			<point x="216" y="666.7454463118"/>
			<point x="224" y="618.7454463118" type="curve" smooth="yes"/>
			<point x="232" y="570.7454463118"/>
			<point x="245" y="524.7454463118"/>
			<point x="251" y="454.7454463118" type="curve" smooth="yes"/>
			<point x="258" y="375.7454463118"/>
			<point x="266" y="338.7454463118"/>
		</contour>
		<contour>
			<point x="278" y="103.7454463118" type="curve" smooth="yes"/>
			<point x="245" y="103.7454463118"/>
			<point x="221" y="83.7454463118"/>
			<point x="218" y="41.7454463118" type="curve" smooth="yes"/>
			<point x="212" y="-52.2545536882"/>
			<point x="201" y="-92.2545536882"/>
			<point x="210" y="-173.2545536882" type="curve" smooth="yes"/>
			<point x="214" y="-205.2545536882"/>
			<point x="251" y="-246.2545536882"/>
			<point x="321" y="-246.2545536882" type="curve" smooth="yes"/>
			<point x="358" y="-246.2545536882"/>
			<point x="375" y="-221.2545536882"/>
			<point x="373" y="-159.2545536882" type="curve" smooth="yes"/>
			<point x="370" y="-106.2545536882"/>
			<point x="355" y="-40.2545536882"/>
			<point x="346" y="8.7454463118" type="curve" smooth="yes"/>
			<point x="334" y="68.7454463118"/>
			<point x="315" y="103.7454463118"/>
		</contour>
	</outline>
</glyph>
<glyph name="ampersand" format="2">
	<unicode hex="0026"/>
	<advance width="713"/>
	<outline>
		<contour>
			<point x="429" y="409.9561127319"/>
			<point x="398" y="441.9561127319"/>
			<point x="308" y="441.9561127319" type="curve" smooth="yes"/>
			<point x="243" y="441.9561127319"/>
			<point x="208" y="422.1447919772"/>
			<point x="208" y="391.9561127319" type="curve" smooth="yes"/>
			<point x="208" y="364.2921783057"/>
			<point x="223" y="346.9561127319"/>
			<point x="390" y="266.9561127319" type="curve" smooth="yes"/>
			<point x="652" y="140.9561127319"/>
			<point x="679" y="56.9561127319"/>
			<point x="679" y="-65.0438872681" type="curve" smooth="yes"/>
			<point x="679" y="-144.0438872681"/>
			<point x="643" y="-264.0438872681"/>
			<point x="544" y="-264.0438872681" type="curve" smooth="yes"/>
			<point x="498" y="-264.0438872681"/>
			<point x="469" y="-238.0438872681"/>
			<point x="469" y="-191.0438872681" type="curve" smooth="yes"/>
			<point x="469" y="-137.0438872681"/>
			<point x="509" y="-132.0438872681"/>
			<point x="509" y="-70.0438872681" type="curve" smooth="yes"/>
			<point x="509" y="-6.0438872681"/>
			<point x="469" y="45.9561127319"/>
			<point x="248" y="154.9561127319" type="curve" smooth="yes"/>
			<point x="60" y="247.9561127319"/>
			<point x="38" y="321.9561127319"/>
			<point x="38" y="395.9561127319" type="curve" smooth="yes"/>
			<point x="38" y="501.9561127319"/>
			<point x="113" y="611.9561127319"/>
			<point x="304" y="611.9561127319" type="curve" smooth="yes"/>
			<point x="383" y="611.9561127319"/>
			<point x="442" y="599.9561127319"/>
			<point x="502" y="572.9561127319" type="curve" smooth="yes"/>
			<point x="534" y="557.9561127319"/>
			<point x="552" y="526.9561127319"/>
			<point x="552" y="493.9561127319" type="curve" smooth="yes"/>
			<point x="552" y="447.9561127319"/>
			<point x="511" y="409.9561127319"/>
			<point x="466" y="409.9561127319" type="curve" smooth="yes"/>
		</contour>
		<contour>
			<point x="254" y="185.9561127319" type="curve" smooth="yes"/>
			<point x="226" y="149.9561127319"/>
			<point x="218" y="132.9561127319"/>
			<point x="218" y="103.9561127319" type="curve" smooth="yes"/>
			<point x="218" y="69.9561127319"/>
			<point x="247" y="52.9561127319"/>
			<point x="277" y="52.9561127319" type="curve" smooth="yes"/>
			<point x="366" y="52.9561127319"/>
			<point x="437" y="133.9561127319"/>
			<point x="539" y="312.9561127319" type="curve" smooth="yes"/>
			<point x="553" y="339.9561127319"/>
			<point x="565" y="356.9561127319"/>
			<point x="592" y="356.9561127319" type="curve" smooth="yes"/>
			<point x="637" y="356.9561127319"/>
			<point x="680" y="320.9561127319"/>
			<point x="680" y="263.9561127319" type="curve" smooth="yes"/>
			<point x="680" y="249.9561127319"/>
			<point x="673" y="218.9561127319"/>
			<point x="651" y="184.9561127319" type="curve" smooth="yes"/>
			<point x="490" y="-65.0438872681"/>
			<point x="400" y="-108.0438872681"/>
			<point x="263" y="-108.0438872681" type="curve" smooth="yes"/>
			<point x="146" y="-108.0438872681"/>
			<point x="48" y="-36.0438872681"/>
			<point x="48" y="83.9561127319" type="curve" smooth="yes"/>
			<point x="48" y="170.9561127319"/>
			<point x="89" y="227.9561127319"/>
			<point x="144" y="263.9561127319" type="curve" smooth="yes"/>
			<point x="179" y="286.9561127319"/>
			<point x="214" y="290.9561127319"/>
			<point x="247" y="265.9561127319" type="curve" smooth="yes"/>
			<point x="266" y="251.9561127319"/>
			<point x="271" y="207.9561127319"/>
		</contour>
	</outline>
</glyph>
<glyph name="quotesingle" format="2">
	<unicode hex="0027"/>
	<advance width="281"/>
	<outline>
		<contour>
			<point x="130" y="461.9571133609" type="curve" smooth="yes"/>
			<point x="168" y="461.9571133609"/>
			<point x="194" y="482.9571133609"/>
			<point x="208" y="521.9571133609" type="curve" smooth="yes"/>
			<point x="237" y="603.9571133609"/>
			<point x="246" y="702.9571133609"/>
			<point x="232" y="768.9571133609" type="curve" smooth="yes"/>
			<point x="223" y="803.9571133609"/>
			<point x="187" y="829.9571133609"/>
			<point x="147" y="829.9571133609" type="curve" smooth="yes"/>
			<point x="97" y="829.9571133609"/>
			<point x="56" y="783.9571133609"/>
			<point x="64" y="735.9571133609" type="curve" smooth="yes"/>
			<point x="73" y="684.9571133609"/>
			<point x="61" y="621.9571133609"/>
			<point x="46" y="575.9571133609" type="curve" smooth="yes"/>
			<point x="32" y="529.9571133609"/>
			<point x="73" y="461.9571133609"/>
		</contour>
	</outline>
</glyph>
<glyph name="parenright" format="2">
	<unicode hex="0029"/>
	<advance width="514"/>
	<image fileName="parenleft.png" xScale="2.5963710802" yScale="2.5963710802" xOffset="-2052.7459756108" yOffset="-485.3762351949" color="0,0,0,0.18426"/>
	<outline>
		<contour>
			<point x="68" y="-305.1406640207" type="curve" smooth="yes"/>
			<point x="189" y="-202.1406640207"/>
			<point x="269" y="-74.1406640207"/>
			<point x="269" y="90.8593359793" type="curve" smooth="yes"/>
			<point x="269" y="273.8593359793"/>
			<point x="200" y="391.8593359793"/>
			<point x="87" y="466.8593359793" type="curve" smooth="yes"/>
			<point x="42" y="496.8593359793"/>
			<point x="20" y="527.8593359793"/>
			<point x="20" y="562.8593359793" type="curve" smooth="yes"/>
			<point x="20" y="605.8593359793"/>
			<point x="58" y="635.8593359793"/>
			<point x="107" y="635.8593359793" type="curve" smooth="yes"/>
			<point x="144" y="635.8593359793"/>
			<point x="163" y="630.8593359793"/>
			<point x="194" y="610.8593359793" type="curve" smooth="yes"/>
			<point x="342" y="516.8593359793"/>
			<point x="445" y="330.8593359793"/>
			<point x="445" y="90.8593359793" type="curve" smooth="yes"/>
			<point x="445" y="-118.1406640207"/>
			<point x="350" y="-295.1406640207"/>
			<point x="203" y="-399.1406640207" type="curve" smooth="yes"/>
			<point x="168" y="-424.1406640207"/>
			<point x="135" y="-435.1406640207"/>
			<point x="109" y="-435.1406640207" type="curve" smooth="yes"/>
			<point x="74" y="-435.1406640207"/>
			<point x="32" y="-418.1406640207"/>
			<point x="32" y="-372.1406640207" type="curve" smooth="yes"/>
			<point x="32" y="-344.1406640207"/>
			<point x="44" y="-327.1406640207"/>
		</contour>
	</outline>
</glyph>
<glyph name="one" format="2">
	<unicode hex="0031"/>
	<advance width="700"/>
	<outline>
		<contour>
			<point x="161" y="357.2807479366" type="curve" smooth="yes"/>
			<point x="233" y="357.2807479366"/>
			<point x="418.6808510638" y="364.2807479366"/>
			<point x="528" y="364.2807479366" type="curve" smooth="yes"/>
			<point x="622" y="364.2807479366"/>
			<point x="658" y="324.2807479366"/>
			<point x="660" y="269.2807479366" type="curve" smooth="yes"/>
			<point x="662" y="223.2807479366"/>
			<point x="632" y="190.2807479366"/>
			<point x="541" y="190.2807479366" type="curve" smooth="yes"/>
			<point x="325" y="190.2807479366"/>
			<point x="236" y="181.2807479366"/>
			<point x="188" y="181.2807479366" type="curve" smooth="yes"/>
			<point x="68" y="181.2807479366"/>
			<point x="45" y="234.6612789101"/>
			<point x="45" y="285.2807479366" type="curve" smooth="yes"/>
			<point x="45" y="327.5664622223"/>
			<point x="79" y="357.2807479366"/>
		</contour>
		<contour>
			<point x="121" y="801.2807479366" type="curve" smooth="yes"/>
			<point x="197" y="809.2807479366"/>
			<point x="260" y="838.2807479366"/>
			<point x="302" y="876.2807479366" type="curve" smooth="yes"/>
			<point x="321" y="893.2807479366"/>
			<point x="343" y="906.2807479366"/>
			<point x="375" y="906.2807479366" type="curve" smooth="yes"/>
			<point x="447" y="906.2807479366"/>
			<point x="498.6738295556" y="840.2132810277"/>
			<point x="477" y="769.2807479366" type="curve" smooth="yes"/>
			<point x="429" y="589.2807479366"/>
			<point x="433" y="389.2807479366"/>
			<point x="433" y="353.2807479366" type="curve" smooth="yes"/>
			<point x="433" y="315.2807479366"/>
			<point x="410" y="286.2807479366"/>
			<point x="367" y="286.2807479366" type="curve" smooth="yes"/>
			<point x="300" y="286.2807479366"/>
			<point x="260" y="339.2807479366"/>
			<point x="260" y="405.2807479366" type="curve" smooth="yes"/>
			<point x="260" y="514.2807479366"/>
			<point x="275" y="626.2807479366"/>
			<point x="296" y="727.2807479366" type="curve"/>
			<point x="328" y="699.2807479366" type="line"/>
			<point x="287.9930727825" y="665.4287325987"/>
			<point x="214" y="641.2807479366"/>
			<point x="151" y="641.2807479366" type="curve" smooth="yes"/>
			<point x="81" y="641.2807479366"/>
			<point x="49" y="688.2601293799"/>
			<point x="49" y="734.2807479366" type="curve" smooth="yes"/>
			<point x="49" y="767.2169181494"/>
			<point x="70" y="795.2807479366"/>
		</contour>
	</outline>
</glyph>
<glyph name="two" format="2">
	<unicode hex="0032"/>
	<advance width="700"/>
	<outline>
		<contour>
			<point x="102" y="753.5175663127" type="curve" smooth="yes"/>
			<point x="200" y="822.5175663127"/>
			<point x="289.2040816327" y="858.5175663127"/>
			<point x="378" y="858.5175663127" type="curve" smooth="yes"/>
			<point x="538" y="858.5175663127"/>
			<point x="600" y="770.3999192539"/>
			<point x="600" y="644.5175663127" type="curve" smooth="yes"/>
			<point x="600" y="546.0854159995"/>
			<point x="553" y="448.5175663127"/>
			<point x="289" y="271.5175663127" type="curve"/>
			<point x="246" y="316.5175663127" type="line"/>
			<point x="272" y="309.5175663127"/>
			<point x="298" y="307.5175663127"/>
			<point x="323" y="307.5175663127" type="curve" smooth="yes"/>
			<point x="376" y="307.5175663127"/>
			<point x="454" y="319.5175663127"/>
			<point x="547" y="319.5175663127" type="curve" smooth="yes"/>
			<point x="649" y="319.5175663127"/>
			<point x="684" y="277.064736124"/>
			<point x="684" y="219.5175663127" type="curve" smooth="yes"/>
			<point x="684" y="180.3410957245"/>
			<point x="653.4" y="145.5175663127"/>
			<point x="599" y="145.5175663127" type="curve" smooth="yes"/>
			<point x="366.2422907489" y="145.5175663127"/>
			<point x="227.3700440529" y="125.5175663127"/>
			<point x="155" y="125.5175663127" type="curve" smooth="yes"/>
			<point x="84" y="125.5175663127"/>
			<point x="52" y="174.5175663127"/>
			<point x="52" y="242.5175663127" type="curve" smooth="yes"/>
			<point x="52" y="284.5175663127"/>
			<point x="67" y="302.5175663127"/>
			<point x="85" y="314.5175663127" type="curve" smooth="yes"/>
			<point x="329.0510847817" y="471.2944540033"/>
			<point x="427" y="556.1826606523"/>
			<point x="427" y="644.5175663127" type="curve" smooth="yes"/>
			<point x="427" y="668.7046166724"/>
			<point x="412" y="683.5175663127"/>
			<point x="378" y="683.5175663127" type="curve" smooth="yes"/>
			<point x="264.2192982456" y="683.5175663127"/>
			<point x="194" y="591.5175663127"/>
			<point x="144" y="591.5175663127" type="curve" smooth="yes"/>
			<point x="98" y="591.5175663127"/>
			<point x="61" y="633.5175663127"/>
			<point x="61" y="681.5175663127" type="curve" smooth="yes"/>
			<point x="61" y="713.5175663127"/>
			<point x="71" y="731.5175663127"/>
		</contour>
	</outline>
</glyph>
<glyph name="semicolon" format="2">
	<unicode hex="003B"/>
	<advance width="320"/>
	<outline>
		<contour>
			<point x="153" y="274.1425342619" type="curve" smooth="yes"/>
			<point x="236.5811965812" y="274.1425342619"/>
			<point x="280" y="317.4576027551"/>
			<point x="280" y="367.1425342619" type="curve" smooth="yes"/>
			<point x="280" y="417.9758675952"/>
			<point x="250.3103448276" y="467.1425342619"/>
			<point x="175" y="467.1425342619" type="curve" smooth="yes"/>
			<point x="100.8723404255" y="467.1425342619"/>
			<point x="41" y="429.6008675952"/>
			<point x="41" y="361.1425342619" type="curve" smooth="yes"/>
			<point x="41" y="302.8435651897"/>
			<point x="78.6393442623" y="274.1425342619"/>
		</contour>
		<component base="comma" yOffset="-60.8574657381"/>
	</outline>
</glyph>
<glyph name="question" format="2">
	<unicode hex="003F"/>
	<advance width="541"/>
	<outline>
		<contour>
			<point x="56" y="592.7520074574" type="curve" smooth="yes"/>
			<point x="107" y="619.7520074574"/>
			<point x="189" y="634.7520074574"/>
			<point x="251" y="634.7520074574" type="curve" smooth="yes"/>
			<point x="420" y="634.7520074574"/>
			<point x="510" y="565.7520074574"/>
			<point x="510" y="447.7520074574" type="curve" smooth="yes"/>
			<point x="510" y="368.7520074574"/>
			<point x="459" y="322.7520074574"/>
			<point x="396" y="293.7520074574" type="curve" smooth="yes"/>
			<point x="327" y="259.7520074574"/>
			<point x="314" y="250.7520074574"/>
			<point x="314" y="241.7520074574" type="curve" smooth="yes"/>
			<point x="314" y="233.7520074574"/>
			<point x="331" y="219.7520074574"/>
			<point x="331" y="197.7520074574" type="curve" smooth="yes"/>
			<point x="331" y="173.7520074574"/>
			<point x="310" y="145.7520074574"/>
			<point x="268" y="145.7520074574" type="curve" smooth="yes"/>
			<point x="191" y="145.7520074574"/>
			<point x="144" y="201.7520074574"/>
			<point x="144" y="264.7520074574" type="curve" smooth="yes"/>
			<point x="144" y="308.7520074574"/>
			<point x="170" y="346.7520074574"/>
			<point x="257" y="383.7520074574" type="curve" smooth="yes"/>
			<point x="323" y="411.7520074574"/>
			<point x="330" y="423.7520074574"/>
			<point x="330" y="437.7520074574" type="curve" smooth="yes"/>
			<point x="330" y="454.7520074574"/>
			<point x="312" y="464.7520074574"/>
			<point x="262" y="464.7520074574" type="curve" smooth="yes"/>
			<point x="162" y="464.7520074574"/>
			<point x="136" y="430.7520074574"/>
			<point x="90" y="430.7520074574" type="curve" smooth="yes"/>
			<point x="44" y="430.7520074574"/>
			<point x="7" y="457.7520074574"/>
			<point x="7" y="513.7520074574" type="curve" smooth="yes"/>
			<point x="7" y="550.7520074574"/>
			<point x="23" y="575.7520074574"/>
		</contour>
		<contour>
			<point x="256" y="-98.2479925426" type="curve" smooth="yes"/>
			<point x="320" y="-98.2479925426"/>
			<point x="353" y="-67.2479925426"/>
			<point x="353" y="-18.2479925426" type="curve" smooth="yes"/>
			<point x="353" y="31.7520074574"/>
			<point x="315" y="79.7520074574"/>
			<point x="233" y="79.7520074574" type="curve" smooth="yes"/>
			<point x="180" y="79.7520074574"/>
			<point x="144" y="50.7520074574"/>
			<point x="144" y="-9.2479925426" type="curve" smooth="yes"/>
			<point x="144" y="-66.2479925426"/>
			<point x="186" y="-98.2479925426"/>
		</contour>
	</outline>
</glyph>
<glyph name="at" format="2">
	<unicode hex="0040"/>
	<advance width="924"/>
	<outline>
		<contour>
			<point x="534" y="464.9939591839" type="curve" smooth="yes"/>
			<point x="493" y="451.9939591839"/>
			<point x="454" y="413.9939591839"/>
			<point x="454" y="379.9939591839" type="curve" smooth="yes"/>
			<point x="454" y="361.9939591839"/>
			<point x="461" y="345.9939591839"/>
			<point x="475" y="333.9939591839" type="curve"/>
			<point x="353" y="432.9939591839" type="line"/>
			<point x="376" y="418.9939591839"/>
			<point x="393" y="415.9939591839"/>
			<point x="411" y="415.9939591839" type="curve" smooth="yes"/>
			<point x="427" y="415.9939591839"/>
			<point x="435" y="428.9939591839"/>
			<point x="459" y="456.9939591839" type="curve" smooth="yes"/>
			<point x="489" y="493.9939591839"/>
			<point x="523" y="518.9939591839"/>
			<point x="575" y="518.9939591839" type="curve" smooth="yes"/>
			<point x="610" y="518.9939591839"/>
			<point x="640.9634442539" y="505.7265994583"/>
			<point x="663" y="473.9939591839" type="curve" smooth="yes"/>
			<point x="694.182820345" y="427.8433850733"/>
			<point x="704.0540540541" y="427.9939591839"/>
			<point x="712" y="427.9939591839" type="curve"/>
			<point x="717" y="427.9939591839"/>
			<point x="720" y="435.9939591839"/>
			<point x="720" y="441.9939591839" type="curve" smooth="yes"/>
			<point x="720" y="546.9939591839"/>
			<point x="635" y="716.9939591839"/>
			<point x="515" y="716.9939591839" type="curve" smooth="yes"/>
			<point x="354" y="716.9939591839"/>
			<point x="204" y="570.9939591839"/>
			<point x="204" y="421.9939591839" type="curve" smooth="yes"/>
			<point x="204" y="252.9939591839"/>
			<point x="358" y="168.9939591839"/>
			<point x="515" y="168.9939591839" type="curve" smooth="yes"/>
			<point x="653" y="168.9939591839"/>
			<point x="709" y="206.9939591839"/>
			<point x="749" y="206.9939591839" type="curve" smooth="yes"/>
			<point x="802" y="206.9939591839"/>
			<point x="833" y="167.9939591839"/>
			<point x="833" y="121.9939591839" type="curve" smooth="yes"/>
			<point x="833" y="87.9939591839"/>
			<point x="813" y="55.9939591839"/>
			<point x="775" y="40.9939591839" type="curve" smooth="yes"/>
			<point x="705" y="13.9939591839"/>
			<point x="636" y="-0.0060408161"/>
			<point x="515" y="-0.0060408161" type="curve" smooth="yes"/>
			<point x="254" y="-0.0060408161"/>
			<point x="35" y="160.9939591839"/>
			<point x="35" y="421.9939591839" type="curve" smooth="yes"/>
			<point x="35" y="650.9939591839"/>
			<point x="262" y="886.9939591839"/>
			<point x="515" y="886.9939591839" type="curve" smooth="yes"/>
			<point x="761" y="886.9939591839"/>
			<point x="889" y="598.9939591839"/>
			<point x="889" y="441.9939591839" type="curve" smooth="yes"/>
			<point x="889" y="320.9939591839"/>
			<point x="817" y="258.9939591839"/>
			<point x="733" y="258.9939591839" type="curve" smooth="yes"/>
			<point x="682.7037037037" y="258.9939591839"/>
			<point x="615.3027107596" y="268.9900866702"/>
			<point x="539" y="377.9939591839" type="curve"/>
			<point x="592" y="374.9939591839" type="line"/>
			<point x="559" y="305.9939591839"/>
			<point x="511" y="265.9939591839"/>
			<point x="433" y="265.9939591839" type="curve" smooth="yes"/>
			<point x="352" y="265.9939591839"/>
			<point x="300" y="305.9939591839"/>
			<point x="300" y="401.9939591839" type="curve" smooth="yes"/>
			<point x="300" y="516.9939591839"/>
			<point x="427" y="629.9939591839"/>
			<point x="504" y="629.9939591839" type="curve" smooth="yes"/>
			<point x="560" y="629.9939591839"/>
			<point x="589" y="592.9939591839"/>
			<point x="589" y="545.9939591839" type="curve" smooth="yes"/>
			<point x="589" y="510.9939591839"/>
			<point x="568" y="476.9939591839"/>
		</contour>
	</outline>
</glyph>
<glyph name="A" format="2">
	<unicode hex="0041"/>
	<advance width="780"/>
	<outline>
		<contour>
			<point x="677" y="148.1445971572" type="curve" smooth="yes"/>
			<point x="719.28125" y="148.1445971572"/>
			<point x="743" y="168.1445971572"/>
			<point x="743" y="206.1445971572" type="curve" smooth="yes"/>
			<point x="743" y="270.1445971572"/>
			<point x="675" y="338.1445971572"/>
			<point x="654" y="531.1445971572" type="curve" smooth="yes"/>
			<point x="625" y="784.1445971572"/>
			<point x="581" y="885.1445971572"/>
			<point x="433" y="885.1445971572" type="curve" smooth="yes"/>
			<point x="336.4344262295" y="885.1445971572"/>
			<point x="247" y="814.1445971572"/>
			<point x="195" y="712.1445971572" type="curve"/>
			<point x="266" y="737.1445971572" type="line"/>
			<point x="228.0601063329" y="772.4976798924"/>
			<point x="204.8990825688" y="787.1445971572"/>
			<point x="176" y="787.1445971572" type="curve" smooth="yes"/>
			<point x="142" y="787.1445971572"/>
			<point x="127" y="771.1445971572"/>
			<point x="127" y="746.1445971572" type="curve" smooth="yes"/>
			<point x="127" y="611.3542745766"/>
			<point x="79" y="496.2413713507"/>
			<point x="79" y="319.1445971572" type="curve" smooth="yes"/>
			<point x="79" y="213.1445971572"/>
			<point x="135.4705882353" y="151.1445971572"/>
			<point x="184" y="151.1445971572" type="curve" smooth="yes"/>
			<point x="225" y="149.1445971572"/>
			<point x="244" y="169.1445971572"/>
			<point x="249" y="216.1445971572" type="curve" smooth="yes"/>
			<point x="287" y="522.1445971572"/>
			<point x="367" y="712.1445971572"/>
			<point x="425" y="712.1445971572" type="curve" smooth="yes"/>
			<point x="443" y="712.1445971572"/>
			<point x="451" y="704.1445971572"/>
			<point x="470" y="536.1445971572" type="curve" smooth="yes"/>
			<point x="483" y="429.1445971572"/>
			<point x="496" y="292.1445971572"/>
			<point x="553" y="217.1445971572" type="curve" smooth="yes"/>
			<point x="591.7782813188" y="165.4402220655"/>
			<point x="624.8412698413" y="148.1445971572"/>
		</contour>
		<contour>
			<point x="134" y="319.1445971572" type="curve" smooth="yes"/>
			<point x="239" y="317.1445971572"/>
			<point x="416" y="357.1445971572"/>
			<point x="623" y="357.1445971572" type="curve" smooth="yes"/>
			<point x="692" y="357.1445971572"/>
			<point x="750" y="402.1445971572"/>
			<point x="750" y="469.1445971572" type="curve" smooth="yes"/>
			<point x="750" y="519.1445971572"/>
			<point x="734" y="531.1445971572"/>
			<point x="599" y="531.1445971572" type="curve" smooth="yes"/>
			<point x="391" y="531.1445971572"/>
			<point x="204" y="510.1445971572"/>
			<point x="52" y="451.1445971572" type="curve" smooth="yes"/>
			<point x="28" y="442.1445971572"/>
			<point x="16" y="429.1445971572"/>
			<point x="16" y="407.1445971572" type="curve" smooth="yes"/>
			<point x="16" y="355.1445971572"/>
			<point x="75" y="319.1445971572"/>
		</contour>
	</outline>
</glyph>
<glyph name="C" format="2">
	<unicode hex="0043"/>
	<advance width="682"/>
	<outline>
		<contour>
			<point x="367" y="80.9299190408" type="curve" smooth="yes"/>
			<point x="545" y="80.9299190408"/>
			<point x="633" y="144.9299190408"/>
			<point x="633" y="238.9299190408" type="curve" smooth="yes"/>
			<point x="633" y="278.9299190408"/>
			<point x="616" y="309.9299190408"/>
			<point x="589" y="309.9299190408" type="curve" smooth="yes"/>
			<point x="556" y="309.9299190408"/>
			<point x="494" y="247.9299190408"/>
			<point x="378" y="247.9299190408" type="curve" smooth="yes"/>
			<point x="279" y="247.9299190408"/>
			<point x="216" y="288.9299190408"/>
			<point x="216" y="364.9299190408" type="curve" smooth="yes"/>
			<point x="216" y="484.9299190408"/>
			<point x="319" y="614.9299190408"/>
			<point x="456" y="614.9299190408" type="curve" smooth="yes"/>
			<point x="482" y="614.9299190408"/>
			<point x="487" y="607.9299190408"/>
			<point x="487" y="590.9299190408" type="curve" smooth="yes"/>
			<point x="487" y="570.9299190408"/>
			<point x="499" y="555.9299190408"/>
			<point x="522" y="555.9299190408" type="curve" smooth="yes"/>
			<point x="587" y="555.9299190408"/>
			<point x="630" y="628.9299190408"/>
			<point x="630" y="699.9299190408" type="curve" smooth="yes"/>
			<point x="630" y="761.9299190408"/>
			<point x="592" y="801.9299190408"/>
			<point x="497" y="801.9299190408" type="curve" smooth="yes"/>
			<point x="260" y="801.9299190408"/>
			<point x="41" y="596.9299190408"/>
			<point x="41" y="379.9299190408" type="curve" smooth="yes"/>
			<point x="41" y="205.9299190408"/>
			<point x="163" y="80.9299190408"/>
		</contour>
	</outline>
</glyph>
<glyph name="D" format="2">
	<unicode hex="0044"/>
	<advance width="717"/>
	<outline>
		<contour>
			<point x="227" y="-204.780768655" type="curve" smooth="yes"/>
			<point x="442" y="-204.780768655"/>
			<point x="678" y="39.219231345"/>
			<point x="678" y="267.219231345" type="curve" smooth="yes"/>
			<point x="678" y="408.219231345"/>
			<point x="570" y="514.219231345"/>
			<point x="385" y="514.219231345" type="curve" smooth="yes"/>
			<point x="250" y="514.219231345"/>
			<point x="52" y="458.219231345"/>
			<point x="16" y="422.219231345" type="curve" smooth="yes"/>
			<point x="3" y="409.219231345"/>
			<point x="1" y="400.219231345"/>
			<point x="1" y="383.219231345" type="curve" smooth="yes"/>
			<point x="1" y="325.219231345"/>
			<point x="65" y="278.219231345"/>
			<point x="136" y="278.219231345" type="curve" smooth="yes"/>
			<point x="198" y="278.219231345"/>
			<point x="254" y="337.219231345"/>
			<point x="389" y="337.219231345" type="curve" smooth="yes"/>
			<point x="481" y="337.219231345"/>
			<point x="502" y="311.219231345"/>
			<point x="502" y="259.219231345" type="curve" smooth="yes"/>
			<point x="502" y="93.219231345"/>
			<point x="366" y="15.219231345"/>
			<point x="172" y="-49.780768655" type="curve"/>
			<point x="272" y="-85.780768655" type="line"/>
			<point x="268" y="-44.780768655"/>
			<point x="264" y="-11.780768655"/>
			<point x="264" y="11.219231345" type="curve" smooth="yes"/>
			<point x="264" y="70.219231345"/>
			<point x="274" y="225.219231345"/>
			<point x="274" y="324.219231345" type="curve" smooth="yes"/>
			<point x="274" y="364.219231345"/>
			<point x="236" y="396.219231345"/>
			<point x="188" y="396.219231345" type="curve" smooth="yes"/>
			<point x="127" y="396.219231345"/>
			<point x="103" y="379.219231345"/>
			<point x="100" y="337.219231345" type="curve" smooth="yes"/>
			<point x="91" y="215.219231345"/>
			<point x="86" y="107.219231345"/>
			<point x="86" y="-20.780768655" type="curve" smooth="yes"/>
			<point x="86" y="-111.780768655"/>
			<point x="145" y="-204.780768655"/>
		</contour>
	</outline>
</glyph>
<glyph name="F" format="2">
	<unicode hex="0046"/>
	<advance width="604"/>
	<outline>
		<contour>
			<point x="262" y="380.0316553735" type="curve" smooth="yes"/>
			<point x="262" y="538.0316553735"/>
			<point x="274" y="624.0316553735"/>
			<point x="274" y="657.0316553735" type="curve" smooth="yes"/>
			<point x="274" y="688.0316553735"/>
			<point x="256" y="688.0316553735"/>
			<point x="205" y="688.0316553735" type="curve" smooth="yes"/>
			<point x="151" y="688.0316553735"/>
			<point x="118" y="665.0316553735"/>
			<point x="104" y="594.0316553735" type="curve" smooth="yes"/>
			<point x="92" y="535.0316553735"/>
			<point x="88" y="491.0316553735"/>
			<point x="88" y="404.0316553735" type="curve" smooth="yes"/>
			<point x="88" y="285.0316553735"/>
			<point x="108" y="199.0316553735"/>
			<point x="143" y="159.0316553735" type="curve" smooth="yes"/>
			<point x="182" y="112.0316553735"/>
			<point x="240" y="100.0316553735"/>
			<point x="278" y="100.0316553735" type="curve" smooth="yes"/>
			<point x="321" y="100.0316553735"/>
			<point x="334" y="114.0316553735"/>
			<point x="334" y="146.0316553735" type="curve" smooth="yes"/>
			<point x="334" y="181.0316553735"/>
			<point x="262" y="222.0316553735"/>
		</contour>
		<contour>
			<point x="525" y="646.0316553735" type="curve" smooth="yes"/>
			<point x="558" y="646.0316553735"/>
			<point x="569" y="662.0316553735"/>
			<point x="569" y="701.0316553735" type="curve" smooth="yes"/>
			<point x="569" y="771.0316553735"/>
			<point x="502" y="817.0316553735"/>
			<point x="428" y="821.0316553735" type="curve" smooth="yes"/>
			<point x="309" y="827.0316553735"/>
			<point x="163" y="787.0316553735"/>
			<point x="66" y="761.0316553735" type="curve" smooth="yes"/>
			<point x="29" y="752.0316553735"/>
			<point x="16" y="726.0316553735"/>
			<point x="16" y="704.0316553735" type="curve" smooth="yes"/>
			<point x="16" y="658.0316553735"/>
			<point x="60" y="600.0316553735"/>
			<point x="157" y="600.0316553735" type="curve" smooth="yes"/>
			<point x="201" y="600.0316553735"/>
			<point x="312" y="646.0316553735"/>
		</contour>
		<contour>
			<point x="210" y="291.0316553735" type="curve" smooth="yes"/>
			<point x="262" y="305.0316553735"/>
			<point x="375" y="324.0316553735"/>
			<point x="448" y="328.0316553735" type="curve" smooth="yes"/>
			<point x="495" y="331.0316553735"/>
			<point x="563" y="368.0316553735"/>
			<point x="563" y="445.0316553735" type="curve" smooth="yes"/>
			<point x="563" y="483.0316553735"/>
			<point x="549" y="497.0316553735"/>
			<point x="487" y="497.0316553735" type="curve" smooth="yes"/>
			<point x="378" y="492.0316553735"/>
			<point x="272" y="482.0316553735"/>
			<point x="196" y="464.0316553735" type="curve" smooth="yes"/>
			<point x="158" y="454.0316553735"/>
			<point x="117" y="403.0316553735"/>
			<point x="117" y="360.0316553735" type="curve" smooth="yes"/>
			<point x="117" y="314.0316553735"/>
			<point x="147" y="275.0316553735"/>
		</contour>
	</outline>
</glyph>
<glyph name="J" format="2">
	<unicode hex="004A"/>
	<advance width="655"/>
	<outline>
		<contour>
			<point x="298" y="-172.6153771228" type="curve" smooth="yes"/>
			<point x="488" y="-172.6153771228"/>
			<point x="589" y="-92.6153771228"/>
			<point x="589" y="85.3846228772" type="curve" smooth="yes"/>
			<point x="589" y="175.3846228772"/>
			<point x="550" y="341.3846228772"/>
			<point x="517" y="430.3846228772" type="curve" smooth="yes"/>
			<point x="493" y="495.3846228772"/>
			<point x="452" y="513.3846228772"/>
			<point x="377" y="515.3846228772" type="curve" smooth="yes"/>
			<point x="343" y="515.3846228772"/>
			<point x="315" y="483.3846228772"/>
			<point x="329" y="446.3846228772" type="curve" smooth="yes"/>
			<point x="368" y="353.3846228772"/>
			<point x="411" y="195.3846228772"/>
			<point x="411" y="111.3846228772" type="curve" smooth="yes"/>
			<point x="411" y="34.3846228772"/>
			<point x="383" y="0.3846228772"/>
			<point x="298" y="0.3846228772" type="curve" smooth="yes"/>
			<point x="224" y="0.3846228772"/>
			<point x="204" y="22.3846228772"/>
			<point x="204" y="43.3846228772" type="curve" smooth="yes"/>
			<point x="204" y="73.3846228772"/>
			<point x="230" y="97.3846228772"/>
			<point x="230" y="128.3846228772" type="curve" smooth="yes"/>
			<point x="230" y="155.3846228772"/>
			<point x="213" y="169.3846228772"/>
			<point x="180" y="169.3846228772" type="curve" smooth="yes"/>
			<point x="75" y="169.3846228772"/>
			<point x="35" y="71.3846228772"/>
			<point x="35" y="10.3846228772" type="curve" smooth="yes"/>
			<point x="35" y="-103.6153771228"/>
			<point x="142" y="-172.6153771228"/>
		</contour>
		<contour>
			<point x="222" y="365.3846228772" type="curve" smooth="yes"/>
			<point x="302" y="365.3846228772"/>
			<point x="429" y="383.3846228772"/>
			<point x="560" y="383.3846228772" type="curve" smooth="yes"/>
			<point x="606" y="383.3846228772"/>
			<point x="630" y="404.3846228772"/>
			<point x="630" y="443.3846228772" type="curve" smooth="yes"/>
			<point x="630" y="532.3846228772"/>
			<point x="542" y="551.3846228772"/>
			<point x="464" y="551.3846228772" type="curve" smooth="yes"/>
			<point x="364" y="551.3846228772"/>
			<point x="313" y="539.3846228772"/>
			<point x="241" y="539.3846228772" type="curve" smooth="yes"/>
			<point x="200" y="539.3846228772"/>
			<point x="160" y="552.3846228772"/>
			<point x="111" y="552.3846228772" type="curve" smooth="yes"/>
			<point x="79" y="552.3846228772"/>
			<point x="61" y="530.3846228772"/>
			<point x="61" y="496.3846228772" type="curve" smooth="yes"/>
			<point x="61" y="400.3846228772"/>
			<point x="156" y="365.3846228772"/>
		</contour>
	</outline>
</glyph>
<glyph name="K" format="2">
	<unicode hex="004B"/>
	<advance width="699"/>
	<outline>
		<contour>
			<point x="189" y="-128.5422036033" type="curve" smooth="yes"/>
			<point x="221" y="-128.5422036033"/>
			<point x="241" y="-109.5422036033"/>
			<point x="241" y="-78.5422036033" type="curve" smooth="yes"/>
			<point x="241" y="-30.5422036033"/>
			<point x="229" y="5.4577963967"/>
			<point x="229" y="75.4577963967" type="curve" smooth="yes"/>
			<point x="229" y="214.4577963967"/>
			<point x="252" y="349.4577963967"/>
			<point x="252" y="434.4577963967" type="curve" smooth="yes"/>
			<point x="252" y="499.4577963967"/>
			<point x="237" y="592.4577963967"/>
			<point x="126" y="592.4577963967" type="curve" smooth="yes"/>
			<point x="82" y="592.4577963967"/>
			<point x="67" y="571.4577963967"/>
			<point x="67" y="538.4577963967" type="curve" smooth="yes"/>
			<point x="67" y="510.4577963967"/>
			<point x="77" y="489.4577963967"/>
			<point x="77" y="432.4577963967" type="curve" smooth="yes"/>
			<point x="77" y="364.4577963967"/>
			<point x="55" y="227.4577963967"/>
			<point x="55" y="69.4577963967" type="curve" smooth="yes"/>
			<point x="55" y="-76.5422036033"/>
			<point x="85" y="-128.5422036033"/>
		</contour>
		<contour>
			<point x="613" y="-128.5422036033" type="curve" smooth="yes"/>
			<point x="671.21875" y="-128.5422036033"/>
			<point x="694" y="-96.8069094857"/>
			<point x="694" y="-45.5422036033" type="curve" smooth="yes"/>
			<point x="694" y="2.1042610432"/>
			<point x="672" y="33.4577963967"/>
			<point x="615" y="47.4577963967" type="curve" smooth="yes"/>
			<point x="451" y="89.4577963967"/>
			<point x="369" y="167.4826411172"/>
			<point x="369" y="199.4577963967" type="curve" smooth="yes"/>
			<point x="369" y="246.4577963967"/>
			<point x="461" y="353.4577963967"/>
			<point x="548" y="405.4577963967" type="curve" smooth="yes"/>
			<point x="603" y="437.4577963967"/>
			<point x="614" y="460.4577963967"/>
			<point x="614" y="510.4577963967" type="curve" smooth="yes"/>
			<point x="614" y="567.4577963967"/>
			<point x="577" y="595.4577963967"/>
			<point x="530" y="595.4577963967" type="curve" smooth="yes"/>
			<point x="508" y="595.4577963967"/>
			<point x="480" y="585.4577963967"/>
			<point x="450" y="564.4577963967" type="curve" smooth="yes"/>
			<point x="323" y="470.4577963967"/>
			<point x="209" y="306.4577963967"/>
			<point x="209" y="174.4577963967" type="curve" smooth="yes"/>
			<point x="209" y="-15.5422036033"/>
			<point x="500" y="-128.5422036033"/>
		</contour>
	</outline>
</glyph>
<glyph name="M" format="2">
	<unicode hex="004D"/>
	<advance width="1046"/>
	<outline>
		<contour>
			<point x="253" y="661.1990818417" type="curve" smooth="yes"/>
			<point x="257" y="587.1990818417"/>
			<point x="186" y="548.1990818417"/>
			<point x="210" y="638.1990818417" type="curve" smooth="yes"/>
			<point x="242" y="747.1990818417"/>
			<point x="298" y="829.1990818417"/>
			<point x="365" y="829.1990818417" type="curve" smooth="yes"/>
			<point x="442" y="829.1990818417"/>
			<point x="510" y="784.1990818417"/>
			<point x="538" y="536.1990818417" type="curve" smooth="yes"/>
			<point x="547" y="475.1990818417"/>
			<point x="541" y="429.1990818417"/>
			<point x="565" y="348.1990818417" type="curve" smooth="yes"/>
			<point x="577" y="311.1990818417"/>
			<point x="497" y="367.1990818417"/>
			<point x="527" y="423.1990818417" type="curve" smooth="yes"/>
			<point x="549" y="464.1990818417"/>
			<point x="578" y="577.1990818417"/>
			<point x="607" y="671.1990818417" type="curve" smooth="yes"/>
			<point x="633" y="755.1990818417"/>
			<point x="673" y="837.1990818417"/>
			<point x="759" y="837.1990818417" type="curve" smooth="yes"/>
			<point x="840" y="837.1990818417"/>
			<point x="931" y="817.1990818417"/>
			<point x="942" y="590.1990818417" type="curve" smooth="yes"/>
			<point x="946" y="471.1990818417"/>
			<point x="966" y="311.1990818417"/>
			<point x="1003" y="211.1990818417" type="curve" smooth="yes"/>
			<point x="1019" y="170.1990818417"/>
			<point x="1011" y="111.1990818417"/>
			<point x="956" y="111.1990818417" type="curve" smooth="yes"/>
			<point x="899" y="111.1990818417"/>
			<point x="843" y="132.1990818417"/>
			<point x="809" y="188.1990818417" type="curve" smooth="yes"/>
			<point x="761" y="263.1990818417"/>
			<point x="763" y="427.1990818417"/>
			<point x="752" y="527.1990818417" type="curve" smooth="yes"/>
			<point x="747" y="582.1990818417"/>
			<point x="738" y="630.1990818417"/>
			<point x="711" y="675.1990818417" type="curve" smooth="yes"/>
			<point x="687" y="711.1990818417"/>
			<point x="825" y="696.1990818417"/>
			<point x="788" y="648.1990818417" type="curve" smooth="yes"/>
			<point x="747" y="596.1990818417"/>
			<point x="698" y="403.1990818417"/>
			<point x="610" y="164.1990818417" type="curve" smooth="yes"/>
			<point x="596" y="127.1990818417"/>
			<point x="562" y="111.1990818417"/>
			<point x="538" y="111.1990818417" type="curve" smooth="yes"/>
			<point x="518" y="111.1990818417"/>
			<point x="485" y="122.1990818417"/>
			<point x="470" y="143.1990818417" type="curve" smooth="yes"/>
			<point x="428" y="199.1990818417"/>
			<point x="401" y="301.1990818417"/>
			<point x="387" y="421.1990818417" type="curve" smooth="yes"/>
			<point x="378" y="496.1990818417"/>
			<point x="370" y="537.1990818417"/>
			<point x="347" y="596.1990818417" type="curve" smooth="yes"/>
			<point x="321" y="668.1990818417"/>
			<point x="404" y="664.1990818417"/>
			<point x="355" y="593.1990818417" type="curve" smooth="yes"/>
			<point x="295" y="497.1990818417"/>
			<point x="242" y="339.1990818417"/>
			<point x="242" y="144.1990818417" type="curve" smooth="yes"/>
			<point x="242" y="122.1990818417"/>
			<point x="215" y="108.1990818417"/>
			<point x="191" y="108.1990818417" type="curve" smooth="yes"/>
			<point x="72" y="108.1990818417"/>
			<point x="67" y="258.1990818417"/>
			<point x="67" y="363.1990818417" type="curve" smooth="yes"/>
			<point x="67" y="452.1990818417"/>
			<point x="75" y="540.1990818417"/>
			<point x="75" y="619.1990818417" type="curve" smooth="yes"/>
			<point x="75" y="667.1990818417"/>
			<point x="63" y="714.1990818417"/>
			<point x="63" y="752.1990818417" type="curve" smooth="yes"/>
			<point x="63" y="770.1990818417"/>
			<point x="75" y="792.1990818417"/>
			<point x="109" y="792.1990818417" type="curve" smooth="yes"/>
			<point x="199" y="792.1990818417"/>
			<point x="253" y="721.1990818417"/>
		</contour>
	</outline>
</glyph>
<glyph name="O" format="2">
	<unicode hex="004F"/>
	<advance width="766"/>
	<outline>
		<contour>
			<point x="340" y="355.9612029626" type="curve" smooth="yes"/>
			<point x="246" y="281.9612029626"/>
			<point x="220" y="237.9612029626"/>
			<point x="220" y="164.9612029626" type="curve" smooth="yes"/>
			<point x="220" y="78.9612029626"/>
			<point x="284" y="38.9612029626"/>
			<point x="367" y="38.9612029626" type="curve" smooth="yes"/>
			<point x="463" y="38.9612029626"/>
			<point x="546" y="98.9612029626"/>
			<point x="546" y="174.9612029626" type="curve" smooth="yes"/>
			<point x="546" y="275.9612029626"/>
			<point x="465" y="412.9612029626"/>
			<point x="381" y="412.9612029626" type="curve" smooth="yes"/>
			<point x="372" y="412.9612029626"/>
			<point x="369" y="402.9612029626"/>
			<point x="369" y="388.9612029626" type="curve" smooth="yes"/>
			<point x="369" y="358.9612029626"/>
			<point x="352" y="343.9612029626"/>
			<point x="334" y="343.9612029626" type="curve" smooth="yes"/>
			<point x="280" y="343.9612029626"/>
			<point x="225" y="389.9612029626"/>
			<point x="225" y="480.9612029626" type="curve" smooth="yes"/>
			<point x="225" y="535.9612029626"/>
			<point x="279" y="585.9612029626"/>
			<point x="374" y="585.9612029626" type="curve" smooth="yes"/>
			<point x="564" y="585.9612029626"/>
			<point x="716" y="367.9612029626"/>
			<point x="716" y="174.9612029626" type="curve" smooth="yes"/>
			<point x="716" y="5.9612029626"/>
			<point x="550" y="-135.0387970374"/>
			<point x="367" y="-135.0387970374" type="curve" smooth="yes"/>
			<point x="195" y="-135.0387970374"/>
			<point x="50" y="-15.0387970374"/>
			<point x="50" y="164.9612029626" type="curve" smooth="yes"/>
			<point x="50" y="362.9612029626"/>
			<point x="235" y="492.9612029626"/>
			<point x="277" y="492.9612029626" type="curve" smooth="yes"/>
			<point x="295" y="492.9612029626"/>
			<point x="328" y="481.9612029626"/>
			<point x="342" y="463.9612029626" type="curve" smooth="yes"/>
			<point x="365" y="433.9612029626"/>
			<point x="370" y="379.9612029626"/>
		</contour>
	</outline>
</glyph>
<glyph name="P" format="2">
	<unicode hex="0050"/>
	<advance width="655"/>
	<outline>
		<contour>
			<point x="80" y="-30.1156147729" type="curve" smooth="yes"/>
			<point x="80" y="-135.1156147729"/>
			<point x="128" y="-175.1156147729"/>
			<point x="199" y="-175.1156147729" type="curve" smooth="yes"/>
			<point x="248" y="-175.1156147729"/>
			<point x="258" y="-130.1156147729"/>
			<point x="258" y="-35.1156147729" type="curve" smooth="yes"/>
			<point x="258" y="106.8843852271"/>
			<point x="214" y="200.8843852271"/>
			<point x="214" y="300.8843852271" type="curve" smooth="yes"/>
			<point x="214" y="343.8843852271"/>
			<point x="259" y="367.8843852271"/>
			<point x="348" y="367.8843852271" type="curve" smooth="yes"/>
			<point x="393" y="367.8843852271"/>
			<point x="436" y="350.8843852271"/>
			<point x="436" y="314.8843852271" type="curve" smooth="yes"/>
			<point x="436" y="252.8843852271"/>
			<point x="359" y="182.8843852271"/>
			<point x="284" y="182.8843852271" type="curve" smooth="yes"/>
			<point x="227" y="182.8843852271"/>
			<point x="215" y="200.8843852271"/>
			<point x="190" y="200.8843852271" type="curve" smooth="yes"/>
			<point x="155" y="200.8843852271"/>
			<point x="127" y="178.8843852271"/>
			<point x="127" y="137.8843852271" type="curve" smooth="yes"/>
			<point x="127" y="70.8843852271"/>
			<point x="197" y="7.8843852271"/>
			<point x="291" y="7.8843852271" type="curve" smooth="yes"/>
			<point x="464" y="7.8843852271"/>
			<point x="609" y="165.8843852271"/>
			<point x="609" y="314.8843852271" type="curve" smooth="yes"/>
			<point x="609" y="459.8843852271"/>
			<point x="491" y="542.8843852271"/>
			<point x="347" y="542.8843852271" type="curve" smooth="yes"/>
			<point x="123" y="542.8843852271"/>
			<point x="41" y="446.8843852271"/>
			<point x="41" y="300.8843852271" type="curve" smooth="yes"/>
			<point x="41" y="197.8843852271"/>
			<point x="80" y="145.8843852271"/>
		</contour>
	</outline>
</glyph>
<glyph name="Q" format="2">
	<unicode hex="0051"/>
	<advance width="764"/>
	<outline>
		<contour>
			<point x="496" y="353.4068463322" type="curve" smooth="yes"/>
			<point x="524" y="316.4068463322"/>
			<point x="560" y="182.4068463322"/>
			<point x="618" y="109.4068463322" type="curve" smooth="yes"/>
			<point x="673" y="38.4068463322"/>
			<point x="662" y="-71.5931536678"/>
			<point x="600" y="-71.5931536678" type="curve" smooth="yes"/>
			<point x="568" y="-71.5931536678"/>
			<point x="542" y="-60.5931536678"/>
			<point x="508" y="-22.5931536678" type="curve" smooth="yes"/>
			<point x="446" y="47.4068463322"/>
			<point x="397" y="212.4068463322"/>
			<point x="336" y="296.4068463322" type="curve" smooth="yes"/>
			<point x="292" y="357.4068463322"/>
			<point x="309" y="408.4068463322"/>
			<point x="368" y="408.4068463322" type="curve" smooth="yes"/>
			<point x="438" y="408.4068463322"/>
			<point x="471" y="385.4068463322"/>
		</contour>
		<contour>
			<point x="324" y="606.4068463322" type="curve" smooth="yes"/>
			<point x="249" y="572.4068463322"/>
			<point x="206" y="488.4068463322"/>
			<point x="206" y="409.4068463322" type="curve" smooth="yes"/>
			<point x="206" y="333.4068463322"/>
			<point x="254" y="262.4068463322"/>
			<point x="385" y="262.4068463322" type="curve" smooth="yes"/>
			<point x="489" y="262.4068463322"/>
			<point x="554" y="335.4068463322"/>
			<point x="554" y="411.4068463322" type="curve" smooth="yes"/>
			<point x="554" y="506.4068463322"/>
			<point x="490" y="620.4068463322"/>
			<point x="409" y="620.4068463322" type="curve" smooth="yes"/>
			<point x="364" y="620.4068463322"/>
			<point x="341" y="596.4068463322"/>
			<point x="318" y="551.4068463322" type="curve" smooth="yes"/>
			<point x="302" y="520.4068463322"/>
			<point x="287" y="510.4068463322"/>
			<point x="264" y="510.4068463322" type="curve" smooth="yes"/>
			<point x="210" y="510.4068463322"/>
			<point x="183" y="534.4068463322"/>
			<point x="183" y="593.4068463322" type="curve" smooth="yes"/>
			<point x="183" y="683.4068463322"/>
			<point x="303" y="805.4068463322"/>
			<point x="424" y="805.4068463322" type="curve" smooth="yes"/>
			<point x="589" y="805.4068463322"/>
			<point x="729" y="642.4068463322"/>
			<point x="729" y="423.4068463322" type="curve" smooth="yes"/>
			<point x="729" y="252.4068463322"/>
			<point x="600" y="87.4068463322"/>
			<point x="385" y="87.4068463322" type="curve" smooth="yes"/>
			<point x="128" y="87.4068463322"/>
			<point x="35" y="240.4068463322"/>
			<point x="35" y="409.4068463322" type="curve" smooth="yes"/>
			<point x="35" y="592.4068463322"/>
			<point x="188" y="752.4068463322"/>
			<point x="278" y="752.4068463322" type="curve" smooth="yes"/>
			<point x="317" y="752.4068463322"/>
			<point x="375" y="713.4068463322"/>
			<point x="375" y="670.4068463322" type="curve" smooth="yes"/>
			<point x="375" y="643.4068463322"/>
			<point x="370" y="627.4068463322"/>
		</contour>
	</outline>
</glyph>
<glyph name="a" format="2">
	<unicode hex="0061"/>
	<advance width="704"/>
	<outline>
		<contour>
			<point x="362" y="281.6996504561" type="curve" smooth="yes"/>
			<point x="367" y="315.6996504561"/>
			<point x="399" y="335.6996504561"/>
			<point x="432" y="335.6996504561" type="curve" smooth="yes"/>
			<point x="489" y="335.6996504561"/>
			<point x="533" y="302.6996504561"/>
			<point x="550" y="261.6996504561" type="curve" smooth="yes"/>
			<point x="590" y="174.6996504561"/>
			<point x="606" y="112.6996504561"/>
			<point x="677" y="36.6996504561" type="curve" smooth="yes"/>
			<point x="716" y="-5.3003495439"/>
			<point x="678" y="-117.3003495439"/>
			<point x="602" y="-117.3003495439" type="curve" smooth="yes"/>
			<point x="577" y="-117.3003495439"/>
			<point x="561" y="-106.3003495439"/>
			<point x="551" y="-94.3003495439" type="curve" smooth="yes"/>
			<point x="493" y="-23.3003495439"/>
			<point x="462" y="30.6996504561"/>
			<point x="423" y="138.6996504561" type="curve"/>
			<point x="483" y="144.6996504561" type="line"/>
			<point x="423" y="-58.3003495439"/>
			<point x="315" y="-120.3003495439"/>
			<point x="207" y="-120.3003495439" type="curve" smooth="yes"/>
			<point x="99" y="-120.3003495439"/>
			<point x="25" y="-59.3003495439"/>
			<point x="25" y="32.6996504561" type="curve" smooth="yes"/>
			<point x="25" y="207.6996504561"/>
			<point x="186" y="415.6996504561"/>
			<point x="337" y="415.6996504561" type="curve" smooth="yes"/>
			<point x="393" y="415.6996504561"/>
			<point x="437" y="377.6996504561"/>
			<point x="437" y="309.6996504561" type="curve" smooth="yes"/>
			<point x="437" y="286.6996504561"/>
			<point x="422" y="274.6996504561"/>
			<point x="405" y="270.6996504561" type="curve" smooth="yes"/>
			<point x="281" y="247.6996504561"/>
			<point x="192" y="131.6996504561"/>
			<point x="192" y="16.6996504561" type="curve" smooth="yes"/>
			<point x="192" y="-2.3003495439"/>
			<point x="194" y="-15.3003495439"/>
			<point x="201" y="-37.3003495439" type="curve"/>
			<point x="127" y="76.6996504561" type="line"/>
			<point x="160" y="53.6996504561"/>
			<point x="182" y="47.6996504561"/>
			<point x="214" y="47.6996504561" type="curve" smooth="yes"/>
			<point x="276" y="47.6996504561"/>
			<point x="339" y="127.6996504561"/>
		</contour>
	</outline>
</glyph>
<glyph name="i" format="2">
	<unicode hex="0069"/>
	<advance width="348"/>
	<outline>
		<contour>
			<point x="182" y="-142.1989572886" type="curve" smooth="yes"/>
			<point x="224" y="-142.1989572886"/>
			<point x="246" y="-115.1989572886"/>
			<point x="246" y="-70.1989572886" type="curve" smooth="yes"/>
			<point x="246" y="-1.1989572886"/>
			<point x="259" y="218.8010427114"/>
			<point x="258" y="282.8010427114" type="curve" smooth="yes"/>
			<point x="257" y="355.8010427114"/>
			<point x="219" y="393.8010427114"/>
			<point x="173" y="393.8010427114" type="curve" smooth="yes"/>
			<point x="118" y="393.8010427114"/>
			<point x="56" y="327.8010427114"/>
			<point x="56" y="253.8010427114" type="curve" smooth="yes"/>
			<point x="56" y="172.8010427114"/>
			<point x="65" y="125.8010427114"/>
			<point x="65" y="-34.1989572886" type="curve" smooth="yes"/>
			<point x="65" y="-91.1989572886"/>
			<point x="117" y="-142.1989572886"/>
		</contour>
		<contour>
			<point x="185" y="456.8010427114" type="curve" smooth="yes"/>
			<point x="243" y="456.8010427114"/>
			<point x="265" y="493.8010427114"/>
			<point x="265" y="530.8010427114" type="curve" smooth="yes"/>
			<point x="265" y="599.8010427114"/>
			<point x="215" y="684.8010427114"/>
			<point x="130" y="684.8010427114" type="curve" smooth="yes"/>
			<point x="83" y="684.8010427114"/>
			<point x="44" y="644.8010427114"/>
			<point x="44" y="589.8010427114" type="curve" smooth="yes"/>
			<point x="44" y="520.8010427114"/>
			<point x="108" y="456.8010427114"/>
		</contour>
	</outline>
</glyph>
<glyph name="k" format="2">
	<unicode hex="006B"/>
	<advance width="678"/>
	<outline>
		<contour>
			<point x="555" y="-160.6978148793" type="curve" smooth="yes"/>
			<point x="602" y="-160.6978148793"/>
			<point x="627" y="-132.6978148793"/>
			<point x="627" y="-88.6978148793" type="curve" smooth="yes"/>
			<point x="627" y="-39.6978148793"/>
			<point x="601" y="12.3021851207"/>
			<point x="533" y="26.3021851207" type="curve" smooth="yes"/>
			<point x="405" y="57.3021851207"/>
			<point x="363" y="79.3021851207"/>
			<point x="363" y="95.3021851207" type="curve" smooth="yes"/>
			<point x="363" y="116.3021851207"/>
			<point x="433" y="168.3021851207"/>
			<point x="545" y="201.3021851207" type="curve" smooth="yes"/>
			<point x="612" y="221.3021851207"/>
			<point x="629" y="242.3021851207"/>
			<point x="629" y="278.3021851207" type="curve" smooth="yes"/>
			<point x="629" y="339.3021851207"/>
			<point x="591" y="373.3021851207"/>
			<point x="533" y="373.3021851207" type="curve" smooth="yes"/>
			<point x="422" y="373.3021851207"/>
			<point x="172" y="222.3021851207"/>
			<point x="172" y="75.3021851207" type="curve" smooth="yes"/>
			<point x="172" y="-15.6978148793"/>
			<point x="414" y="-160.6978148793"/>
		</contour>
		<contour>
			<point x="139" y="656.3021851207" type="curve" smooth="yes"/>
			<point x="94" y="656.3021851207"/>
			<point x="73" y="632.3021851207"/>
			<point x="73" y="587.3021851207" type="curve" smooth="yes"/>
			<point x="73" y="551.3021851207"/>
			<point x="82" y="520.3021851207"/>
			<point x="82" y="440.3021851207" type="curve" smooth="yes"/>
			<point x="82" y="251.3021851207"/>
			<point x="55" y="69.3021851207"/>
			<point x="55" y="-16.6978148793" type="curve" smooth="yes"/>
			<point x="55" y="-134.6978148793"/>
			<point x="110" y="-163.6978148793"/>
			<point x="164" y="-163.6978148793" type="curve" smooth="yes"/>
			<point x="206" y="-163.6978148793"/>
			<point x="229" y="-144.6978148793"/>
			<point x="229" y="-100.6978148793" type="curve" smooth="yes"/>
			<point x="229" y="-51.6978148793"/>
			<point x="224" y="-8.6978148793"/>
			<point x="224" y="55.3021851207" type="curve" smooth="yes"/>
			<point x="224" y="171.3021851207"/>
			<point x="261" y="298.3021851207"/>
			<point x="261" y="442.3021851207" type="curve" smooth="yes"/>
			<point x="261" y="598.3021851207"/>
			<point x="221" y="656.3021851207"/>
		</contour>
	</outline>
</glyph>
<glyph name="l" format="2">
	<unicode hex="006C"/>
	<advance width="403"/>
	<outline>
		<contour>
			<point x="251" y="562.4586688942" type="curve" smooth="yes"/>
			<point x="251" y="479.4586688942"/>
			<point x="229" y="383.4586688942"/>
			<point x="229" y="234.4586688942" type="curve" smooth="yes"/>
			<point x="229" y="57.4586688942"/>
			<point x="249" y="51.4586688942"/>
			<point x="273" y="51.4586688942" type="curve" smooth="yes"/>
			<point x="307" y="51.4586688942"/>
			<point x="326" y="73.4586688942"/>
			<point x="348" y="73.4586688942" type="curve" smooth="yes"/>
			<point x="382" y="73.4586688942"/>
			<point x="393" y="43.4586688942"/>
			<point x="393" y="2.4586688942" type="curve" smooth="yes"/>
			<point x="393" y="-75.5413311058"/>
			<point x="326" y="-123.5413311058"/>
			<point x="231" y="-123.5413311058" type="curve" smooth="yes"/>
			<point x="166" y="-123.5413311058"/>
			<point x="52" y="-86.5413311058"/>
			<point x="52" y="254.4586688942" type="curve" smooth="yes"/>
			<point x="52" y="400.4586688942"/>
			<point x="62" y="518.4586688942"/>
			<point x="83" y="633.4586688942" type="curve" smooth="yes"/>
			<point x="91" y="678.4586688942"/>
			<point x="114" y="697.4586688942"/>
			<point x="157" y="697.4586688942" type="curve" smooth="yes"/>
			<point x="217" y="697.4586688942"/>
			<point x="251" y="657.4586688942"/>
		</contour>
	</outline>
</glyph>
<glyph name="n" format="2">
	<unicode hex="006E"/>
	<advance width="707"/>
	<outline>
		<contour>
			<point x="585" y="-80.2705279952" type="curve" smooth="yes"/>
			<point x="624" y="-80.2705279952"/>
			<point x="667" y="-41.2705279952"/>
			<point x="667" y="12.7294720048" type="curve" smooth="yes"/>
			<point x="667" y="37.7294720048"/>
			<point x="660" y="54.7294720048"/>
			<point x="642" y="69.7294720048" type="curve" smooth="yes"/>
			<point x="601" y="103.7294720048"/>
			<point x="594" y="168.7294720048"/>
			<point x="594" y="299.7294720048" type="curve" smooth="yes"/>
			<point x="594" y="385.7294720048"/>
			<point x="533" y="453.7294720048"/>
			<point x="439" y="453.7294720048" type="curve" smooth="yes"/>
			<point x="341" y="453.7294720048"/>
			<point x="234" y="370.7294720048"/>
			<point x="167" y="181.7294720048" type="curve"/>
			<point x="217" y="115.7294720048" type="line"/>
			<point x="217" y="254.7294720048"/>
			<point x="244" y="270.7294720048"/>
			<point x="244" y="341.7294720048" type="curve" smooth="yes"/>
			<point x="244" y="406.7294720048"/>
			<point x="182" y="440.7294720048"/>
			<point x="141" y="440.7294720048" type="curve" smooth="yes"/>
			<point x="104" y="440.7294720048"/>
			<point x="84" y="419.7294720048"/>
			<point x="84" y="390.7294720048" type="curve" smooth="yes"/>
			<point x="84" y="267.7294720048"/>
			<point x="55" y="215.7294720048"/>
			<point x="55" y="80.7294720048" type="curve" smooth="yes"/>
			<point x="55" y="-12.2705279952"/>
			<point x="85" y="-79.2705279952"/>
			<point x="145" y="-79.2705279952" type="curve" smooth="yes"/>
			<point x="191" y="-79.2705279952"/>
			<point x="216" y="-64.2705279952"/>
			<point x="229" y="-20.2705279952" type="curve" smooth="yes"/>
			<point x="282" y="156.7294720048"/>
			<point x="374" y="286.7294720048"/>
			<point x="425" y="286.7294720048" type="curve" smooth="yes"/>
			<point x="443" y="286.7294720048"/>
			<point x="456" y="275.7294720048"/>
			<point x="483" y="246.7294720048" type="curve"/>
			<point x="488" y="303.7294720048"/>
			<point x="457" y="305.7294720048"/>
			<point x="404" y="308.7294720048" type="curve"/>
			<point x="437" y="293.7294720048"/>
			<point x="438" y="270.7294720048"/>
			<point x="438" y="228.7294720048" type="curve" smooth="yes"/>
			<point x="438" y="24.7294720048"/>
			<point x="493" y="-80.2705279952"/>
		</contour>
	</outline>
</glyph>
<glyph name="q" format="2">
	<unicode hex="0071"/>
	<advance width="618"/>
	<outline>
		<contour>
			<point x="423" y="414.5461170426" type="curve" smooth="yes"/>
			<point x="466" y="414.5461170426"/>
			<point x="500" y="447.5461170426"/>
			<point x="500" y="484.5461170426" type="curve" smooth="yes"/>
			<point x="500" y="562.5461170426"/>
			<point x="437" y="634.5461170426"/>
			<point x="339" y="634.5461170426" type="curve" smooth="yes"/>
			<point x="179" y="634.5461170426"/>
			<point x="15" y="469.5461170426"/>
			<point x="15" y="317.5461170426" type="curve" smooth="yes"/>
			<point x="15" y="186.5461170426"/>
			<point x="88" y="99.5461170426"/>
			<point x="235" y="99.5461170426" type="curve" smooth="yes"/>
			<point x="319" y="99.5461170426"/>
			<point x="373" y="122.5461170426"/>
			<point x="437" y="166.5461170426" type="curve" smooth="yes"/>
			<point x="510" y="216.5461170426"/>
			<point x="408" y="227.5461170426"/>
			<point x="406" y="180.5461170426" type="curve" smooth="yes"/>
			<point x="402" y="93.5461170426"/>
			<point x="405" y="10.5461170426"/>
			<point x="411" y="-58.4538829574" type="curve" smooth="yes"/>
			<point x="414" y="-92.4538829574"/>
			<point x="451" y="-150.4538829574"/>
			<point x="505" y="-150.4538829574" type="curve" smooth="yes"/>
			<point x="550" y="-150.4538829574"/>
			<point x="597" y="-124.4538829574"/>
			<point x="640" y="-86.4538829574" type="curve" smooth="yes"/>
			<point x="652" y="-75.4538829574"/>
			<point x="660" y="-59.4538829574"/>
			<point x="660" y="-41.4538829574" type="curve" smooth="yes"/>
			<point x="660" y="29.5461170426"/>
			<point x="638" y="88.5461170426"/>
			<point x="609" y="88.5461170426" type="curve" smooth="yes"/>
			<point x="591" y="88.5461170426"/>
			<point x="578" y="74.5461170426"/>
			<point x="557" y="62.5461170426" type="curve" smooth="yes"/>
			<point x="529" y="46.5461170426"/>
			<point x="581" y="4.5461170426"/>
			<point x="578" y="50.5461170426" type="curve" smooth="yes"/>
			<point x="572" y="151.5461170426"/>
			<point x="571" y="203.5461170426"/>
			<point x="572" y="260.5461170426" type="curve"/>
			<point x="577" y="280.5461170426"/>
			<point x="602" y="327.5461170426"/>
			<point x="602" y="393.5461170426" type="curve" smooth="yes"/>
			<point x="602" y="441.5461170426"/>
			<point x="561" y="477.5461170426"/>
			<point x="494" y="477.5461170426" type="curve" smooth="yes"/>
			<point x="472" y="477.5461170426"/>
			<point x="460" y="465.5461170426"/>
			<point x="454" y="446.5461170426" type="curve" smooth="yes"/>
			<point x="417" y="341.5461170426"/>
			<point x="336" y="269.5461170426"/>
			<point x="235" y="269.5461170426" type="curve" smooth="yes"/>
			<point x="208" y="269.5461170426"/>
			<point x="192" y="283.5461170426"/>
			<point x="192" y="308.5461170426" type="curve" smooth="yes"/>
			<point x="192" y="368.5461170426"/>
			<point x="285" y="463.5461170426"/>
			<point x="339" y="463.5461170426" type="curve" smooth="yes"/>
			<point x="362" y="463.5461170426"/>
			<point x="373" y="457.5461170426"/>
			<point x="382" y="442.5461170426" type="curve" smooth="yes"/>
			<point x="394" y="421.5461170426"/>
			<point x="408" y="414.5461170426"/>
		</contour>
	</outline>
</glyph>
<glyph name="u" format="2">
	<unicode hex="0075"/>
	<advance width="639"/>
	<outline>
		<contour>
			<point x="333" y="-99.8908411102" type="curve" smooth="yes"/>
			<point x="474" y="-99.8908411102"/>
			<point x="585" y="28.1542716718"/>
			<point x="585" y="293.1091588898" type="curve" smooth="yes"/>
			<point x="585" y="383.1091588898"/>
			<point x="547" y="427.1091588898"/>
			<point x="482" y="427.1091588898" type="curve" smooth="yes"/>
			<point x="428" y="427.1091588898"/>
			<point x="413" y="398.1091588898"/>
			<point x="413" y="349.1091588898" type="curve" smooth="yes"/>
			<point x="413" y="317.1091588898"/>
			<point x="417" y="292.1091588898"/>
			<point x="417" y="252.1091588898" type="curve" smooth="yes"/>
			<point x="417" y="166.0271916767"/>
			<point x="384" y="75.1091588898"/>
			<point x="321" y="75.1091588898" type="curve" smooth="yes"/>
			<point x="271" y="75.1091588898"/>
			<point x="208" y="154.9572601556"/>
			<point x="208" y="227.1091588898" type="curve" smooth="yes"/>
			<point x="208" y="260.1091588898"/>
			<point x="230" y="296.1091588898"/>
			<point x="230" y="321.1091588898" type="curve" smooth="yes"/>
			<point x="230" y="377.9830327637"/>
			<point x="177" y="428.1091588898"/>
			<point x="121" y="428.1091588898" type="curve" smooth="yes"/>
			<point x="95" y="428.1091588898"/>
			<point x="75" y="411.1091588898"/>
			<point x="67" y="389.1091588898" type="curve" smooth="yes"/>
			<point x="45.4562248666" y="335.2497210562"/>
			<point x="35" y="285.6633757573"/>
			<point x="35" y="227.1091588898" type="curve" smooth="yes"/>
			<point x="35" y="90.6136633943"/>
			<point x="152" y="-99.8908411102"/>
		</contour>
	</outline>
</glyph>
<glyph name="w" format="2">
	<unicode hex="0077"/>
	<advance width="917"/>
	<outline>
		<contour>
			<point x="172" y="660.0240908129" type="curve" smooth="yes"/>
			<point x="218" y="566.0240908129"/>
			<point x="213" y="424.0240908129"/>
			<point x="280" y="354.0240908129" type="curve" smooth="yes"/>
			<point x="303" y="330.0240908129"/>
			<point x="201" y="332.0240908129"/>
			<point x="216" y="353.0240908129" type="curve" smooth="yes"/>
			<point x="258" y="419.0240908129"/>
			<point x="260" y="451.0240908129"/>
			<point x="301" y="559.0240908129" type="curve" smooth="yes"/>
			<point x="338" y="657.0240908129"/>
			<point x="372" y="717.0240908129"/>
			<point x="442" y="717.0240908129" type="curve" smooth="yes"/>
			<point x="516" y="717.0240908129"/>
			<point x="557" y="662.0240908129"/>
			<point x="592" y="572.0240908129" type="curve" smooth="yes"/>
			<point x="639" y="450.0240908129"/>
			<point x="631" y="390.0240908129"/>
			<point x="691" y="363.0240908129" type="curve" smooth="yes"/>
			<point x="749" y="338.0240908129"/>
			<point x="606" y="317.0240908129"/>
			<point x="635" y="351.0240908129" type="curve" smooth="yes"/>
			<point x="682" y="406.0240908129"/>
			<point x="688" y="558.0240908129"/>
			<point x="720" y="633.0240908129" type="curve" smooth="yes"/>
			<point x="736" y="670.0240908129"/>
			<point x="771" y="719.0240908129"/>
			<point x="826" y="719.0240908129" type="curve" smooth="yes"/>
			<point x="874" y="719.0240908129"/>
			<point x="918" y="672.0240908129"/>
			<point x="918" y="623.0240908129" type="curve" smooth="yes"/>
			<point x="918" y="602.0240908129"/>
			<point x="907" y="582.0240908129"/>
			<point x="892" y="564.0240908129" type="curve" smooth="yes"/>
			<point x="845" y="506.0240908129"/>
			<point x="838" y="429.0240908129"/>
			<point x="816" y="348.0240908129" type="curve" smooth="yes"/>
			<point x="780" y="210.0240908129"/>
			<point x="726" y="178.0240908129"/>
			<point x="682" y="178.0240908129" type="curve" smooth="yes"/>
			<point x="632" y="178.0240908129"/>
			<point x="592" y="202.0240908129"/>
			<point x="549" y="273.0240908129" type="curve" smooth="yes"/>
			<point x="484" y="380.0240908129"/>
			<point x="472" y="502.0240908129"/>
			<point x="437" y="543.0240908129" type="curve" smooth="yes"/>
			<point x="414" y="568.0240908129"/>
			<point x="488" y="573.0240908129"/>
			<point x="463" y="542.0240908129" type="curve" smooth="yes"/>
			<point x="416" y="477.0240908129"/>
			<point x="409" y="374.0240908129"/>
			<point x="357" y="263.0240908129" type="curve" smooth="yes"/>
			<point x="332" y="207.0240908129"/>
			<point x="293" y="176.0240908129"/>
			<point x="253" y="176.0240908129" type="curve" smooth="yes"/>
			<point x="172" y="176.0240908129"/>
			<point x="122" y="236.0240908129"/>
			<point x="84" y="373.0240908129" type="curve" smooth="yes"/>
			<point x="52" y="489.0240908129"/>
			<point x="35" y="550.0240908129"/>
			<point x="12" y="596.0240908129" type="curve" smooth="yes"/>
			<point x="-30" y="671.0240908129"/>
			<point x="16" y="720.0240908129"/>
			<point x="80" y="720.0240908129" type="curve" smooth="yes"/>
			<point x="124" y="720.0240908129"/>
			<point x="148" y="708.0240908129"/>
		</contour>
	</outline>
</glyph>
<glyph name="z" format="2">
	<unicode hex="007A"/>
	<advance width="633"/>
	<outline>
		<contour>
			<point x="92" y="632.0519523427" type="curve" smooth="yes"/>
			<point x="169" y="645.0519523427"/>
			<point x="249" y="652.0519523427"/>
			<point x="325" y="652.0519523427" type="curve" smooth="yes"/>
			<point x="477" y="652.0519523427"/>
			<point x="523" y="577.0519523427"/>
			<point x="523" y="502.0519523427" type="curve" smooth="yes"/>
			<point x="523" y="442.4610432518"/>
			<point x="450" y="329.0519523427"/>
			<point x="203" y="278.0519523427" type="curve"/>
			<point x="255" y="308.0519523427" type="line"/>
			<point x="248" y="293.0519523427"/>
			<point x="248" y="284.0519523427"/>
			<point x="253" y="284.0519523427" type="curve" smooth="yes"/>
			<point x="328" y="284.0519523427"/>
			<point x="389" y="300.0519523427"/>
			<point x="483" y="300.0519523427" type="curve" smooth="yes"/>
			<point x="547" y="300.0519523427"/>
			<point x="584" y="249.0519523427"/>
			<point x="584" y="188.0519523427" type="curve" smooth="yes"/>
			<point x="584" y="152.0519523427"/>
			<point x="565" y="128.0519523427"/>
			<point x="520" y="128.0519523427" type="curve" smooth="yes"/>
			<point x="440" y="128.0519523427"/>
			<point x="318" y="118.0519523427"/>
			<point x="223" y="118.0519523427" type="curve" smooth="yes"/>
			<point x="80" y="118.0519523427"/>
			<point x="44" y="185.4269523427"/>
			<point x="44" y="258.0519523427" type="curve" smooth="yes"/>
			<point x="44" y="326.0519523427"/>
			<point x="73" y="354.0519523427"/>
			<point x="106" y="363.0519523427" type="curve" smooth="yes"/>
			<point x="279.102004904" y="412.6542812333"/>
			<point x="330.9287767975" y="458.9095059377"/>
			<point x="359" y="515.0519523427" type="curve"/>
			<point x="401" y="464.0519523427" type="line"/>
			<point x="373" y="478.0519523427"/>
			<point x="360" y="483.0519523427"/>
			<point x="302" y="483.0519523427" type="curve" smooth="yes"/>
			<point x="203" y="483.0519523427"/>
			<point x="150" y="460.0519523427"/>
			<point x="119" y="460.0519523427" type="curve" smooth="yes"/>
			<point x="80" y="460.0519523427"/>
			<point x="40" y="513.0519523427"/>
			<point x="40" y="568.0519523427" type="curve" smooth="yes"/>
			<point x="40" y="601.0519523427"/>
			<point x="51" y="623.0519523427"/>
		</contour>
	</outline>
</glyph>
<glyph name="section" format="2">
	<unicode hex="00A7"/>
	<advance width="603"/>
	<outline>
		<contour>
			<point x="262" y="-326.4498784183" type="curve" smooth="yes"/>
			<point x="459" y="-326.4498784183"/>
			<point x="556" y="-271.4498784183"/>
			<point x="556" y="-149.4498784183" type="curve" smooth="yes"/>
			<point x="556" y="44.5501215817"/>
			<point x="208" y="61.5501215817"/>
			<point x="208" y="143.5501215817" type="curve" smooth="yes"/>
			<point x="208" y="168.5501215817"/>
			<point x="247" y="199.5501215817"/>
			<point x="332" y="207.5501215817" type="curve"/>
			<point x="238" y="292.5501215817" type="line"/>
			<point x="116" y="278.5501215817"/>
			<point x="47" y="224.5501215817"/>
			<point x="47" y="137.5501215817" type="curve" smooth="yes"/>
			<point x="47" y="-60.4498784183"/>
			<point x="342" y="-81.4498784183"/>
			<point x="375" y="-145.4498784183" type="curve"/>
			<point x="330" y="-156.4498784183"/>
			<point x="304" y="-159.4498784183"/>
			<point x="241" y="-159.4498784183" type="curve" smooth="yes"/>
			<point x="166" y="-159.4498784183"/>
			<point x="148" y="-132.4498784183"/>
			<point x="112" y="-132.4498784183" type="curve" smooth="yes"/>
			<point x="70" y="-132.4498784183"/>
			<point x="60" y="-153.4498784183"/>
			<point x="60" y="-188.4498784183" type="curve" smooth="yes"/>
			<point x="60" y="-258.4498784183"/>
			<point x="131" y="-326.4498784183"/>
		</contour>
		<contour>
			<point x="372" y="-24.4498784183" type="line"/>
			<point x="495" y="-24.4498784183"/>
			<point x="566" y="33.5501215817"/>
			<point x="566" y="121.5501215817" type="curve" smooth="yes"/>
			<point x="566" y="301.5501215817"/>
			<point x="236" y="323.5501215817"/>
			<point x="236" y="384.5501215817" type="curve" smooth="yes"/>
			<point x="236" y="414.5501215817"/>
			<point x="341" y="448.5501215817"/>
			<point x="490" y="479.5501215817" type="curve" smooth="yes"/>
			<point x="522" y="485.5501215817"/>
			<point x="544" y="514.5501215817"/>
			<point x="544" y="548.5501215817" type="curve" smooth="yes"/>
			<point x="544" y="597.5501215817"/>
			<point x="520" y="643.5501215817"/>
			<point x="448" y="643.5501215817" type="curve" smooth="yes"/>
			<point x="325" y="643.5501215817"/>
			<point x="57" y="545.5501215817"/>
			<point x="57" y="388.5501215817" type="curve" smooth="yes"/>
			<point x="57" y="190.5501215817"/>
			<point x="372" y="170.5501215817"/>
			<point x="405" y="115.5501215817" type="curve"/>
			<point x="381" y="86.5501215817"/>
			<point x="338" y="71.5501215817"/>
			<point x="256" y="66.5501215817" type="curve"/>
		</contour>
	</outline>
</glyph>
<glyph name="second" format="2">
	<unicode hex="2033"/>
	<advance width="556"/>
	<outline>
		<contour>
			<point x="97" y="480.9133262995" type="curve" smooth="yes"/>
			<point x="137" y="480.9133262995"/>
			<point x="165" y="501.9133262995"/>
			<point x="187" y="536.9133262995" type="curve" smooth="yes"/>
			<point x="226" y="599.9133262995"/>
			<point x="256" y="682.9133262995"/>
			<point x="256" y="744.9133262995" type="curve" smooth="yes"/>
			<point x="256" y="809.9133262995"/>
			<point x="211" y="846.9133262995"/>
			<point x="143" y="846.9133262995" type="curve" smooth="yes"/>
			<point x="86" y="846.9133262995"/>
			<point x="61" y="807.9133262995"/>
			<point x="61" y="743.9133262995" type="curve" smooth="yes"/>
			<point x="61" y="615.9133262995"/>
			<point x="36" y="585.9133262995"/>
			<point x="36" y="540.9133262995" type="curve" smooth="yes"/>
			<point x="36" y="505.9133262995"/>
			<point x="53" y="480.9133262995"/>
		</contour>
		<contour>
			<point x="361" y="480.9133262995" type="curve" smooth="yes"/>
			<point x="401" y="480.9133262995"/>
			<point x="429" y="501.9133262995"/>
			<point x="451" y="536.9133262995" type="curve" smooth="yes"/>
			<point x="490" y="599.9133262995"/>
			<point x="520" y="682.9133262995"/>
			<point x="520" y="744.9133262995" type="curve" smooth="yes"/>
			<point x="520" y="809.9133262995"/>
			<point x="475" y="846.9133262995"/>
			<point x="407" y="846.9133262995" type="curve" smooth="yes"/>
			<point x="350" y="846.9133262995"/>
			<point x="325" y="807.9133262995"/>
			<point x="325" y="743.9133262995" type="curve" smooth="yes"/>
			<point x="325" y="600.9133262995"/>
			<point x="300" y="583.9133262995"/>
			<point x="300" y="540.9133262995" type="curve" smooth="yes"/>
			<point x="300" y="505.9133262995"/>
			<point x="317" y="480.9133262995"/>
		</contour>
	</outline>
</glyph>
<glyph name="trademark" format="2">
	<unicode hex="2122"/>
	<advance width="1207"/>
	<outline>
		<contour>
			<point x="155" y="511.8918882017" type="curve" smooth="yes"/>
			<point x="141" y="365.8918882017"/>
			<point x="141" y="309.8918882017"/>
			<point x="164" y="237.8918882017" type="curve" smooth="yes"/>
			<point x="178" y="193.8918882017"/>
			<point x="212" y="165.8918882017"/>
			<point x="252" y="165.8918882017" type="curve" smooth="yes"/>
			<point x="295" y="165.8918882017"/>
			<point x="316" y="183.8918882017"/>
			<point x="316" y="227.8918882017" type="curve" smooth="yes"/>
			<point x="316" y="280.8918882017"/>
			<point x="300" y="291.8918882017"/>
			<point x="312" y="490.8918882017" type="curve" smooth="yes"/>
			<point x="316" y="554.8918882017"/>
			<point x="291" y="583.8918882017"/>
			<point x="218" y="583.8918882017" type="curve" smooth="yes"/>
			<point x="183" y="583.8918882017"/>
			<point x="159" y="559.8918882017"/>
		</contour>
		<contour>
			<point x="119" y="493.8918882017" type="curve" smooth="yes"/>
			<point x="185" y="486.8918882017"/>
			<point x="263" y="483.8918882017"/>
			<point x="346" y="483.8918882017" type="curve" smooth="yes"/>
			<point x="400" y="483.8918882017"/>
			<point x="459" y="511.8918882017"/>
			<point x="459" y="583.8918882017" type="curve" smooth="yes"/>
			<point x="459" y="615.8918882017"/>
			<point x="439" y="636.8918882017"/>
			<point x="397" y="636.8918882017" type="curve" smooth="yes"/>
			<point x="368" y="636.8918882017"/>
			<point x="347" y="629.8918882017"/>
			<point x="309" y="629.8918882017" type="curve" smooth="yes"/>
			<point x="246" y="629.8918882017"/>
			<point x="158" y="637.8918882017"/>
			<point x="80" y="637.8918882017" type="curve" smooth="yes"/>
			<point x="38" y="637.8918882017"/>
			<point x="20" y="611.8918882017"/>
			<point x="20" y="580.8918882017" type="curve" smooth="yes"/>
			<point x="20" y="526.8918882017"/>
			<point x="47" y="500.8918882017"/>
		</contour>
		<contour>
			<point x="979" y="457.8918882017"/>
			<point x="971" y="475.8918882017"/>
			<point x="958" y="494.8918882017" type="curve"/>
			<point x="1015" y="466.8918882017" type="line"/>
			<point x="959.3187087509" y="428.0200433675"/>
			<point x="929.1017873111" y="358.3551959626"/>
			<point x="900" y="225.8918882017" type="curve" smooth="yes"/>
			<point x="890" y="180.8918882017"/>
			<point x="868" y="168.8918882017"/>
			<point x="842" y="168.8918882017" type="curve" smooth="yes"/>
			<point x="817" y="168.8918882017"/>
			<point x="803" y="175.8918882017"/>
			<point x="792" y="187.8918882017" type="curve" smooth="yes"/>
			<point x="766.7439994362" y="215.9541110504"/>
			<point x="753.9857813641" y="273.0180785955"/>
			<point x="746" y="343.8918882017" type="curve" smooth="yes"/>
			<point x="740" y="393.8918882017"/>
			<point x="732" y="421.8918882017"/>
			<point x="705" y="445.8918882017" type="curve"/>
			<point x="741" y="447.8918882017" type="line"/>
			<point x="688" y="408.8918882017"/>
			<point x="652" y="298.8918882017"/>
			<point x="652" y="223.8918882017" type="curve" smooth="yes"/>
			<point x="652" y="182.8918882017"/>
			<point x="631" y="166.8918882017"/>
			<point x="590" y="166.8918882017" type="curve" smooth="yes"/>
			<point x="543" y="166.8918882017"/>
			<point x="504" y="207.8918882017"/>
			<point x="504" y="299.8918882017" type="curve" smooth="yes"/>
			<point x="504" y="373.8918882017"/>
			<point x="522" y="428.8918882017"/>
			<point x="522" y="504.8918882017" type="curve" smooth="yes"/>
			<point x="522" y="528.8918882017"/>
			<point x="516" y="551.8918882017"/>
			<point x="516" y="577.8918882017" type="curve" smooth="yes"/>
			<point x="516" y="609.8918882017"/>
			<point x="536" y="630.8918882017"/>
			<point x="568" y="630.8918882017" type="curve" smooth="yes"/>
			<point x="650" y="630.8918882017"/>
			<point x="675" y="574.8918882017"/>
			<point x="670" y="473.8918882017" type="curve"/>
			<point x="629" y="459.8918882017" type="line"/>
			<point x="660" y="577.8918882017"/>
			<point x="716" y="635.8918882017"/>
			<point x="783" y="635.8918882017" type="curve" smooth="yes"/>
			<point x="836.4578313253" y="635.8918882017"/>
			<point x="860.9976840721" y="606.9073277213"/>
			<point x="870" y="546.8918882017" type="curve" smooth="yes"/>
			<point x="878" y="493.8918882017"/>
			<point x="884" y="440.8918882017"/>
			<point x="905" y="381.8918882017" type="curve"/>
			<point x="814" y="381.8918882017" type="line"/>
			<point x="819" y="407.8918882017"/>
			<point x="842" y="472.8918882017"/>
			<point x="875" y="532.8918882017" type="curve" smooth="yes"/>
			<point x="907.545651477" y="592.8979331124"/>
			<point x="958.6934306569" y="633.8918882017"/>
			<point x="1022" y="633.8918882017" type="curve" smooth="yes"/>
			<point x="1097" y="633.8918882017"/>
			<point x="1139" y="592.8918882017"/>
			<point x="1146" y="488.8918882017" type="curve" smooth="yes"/>
			<point x="1150" y="422.8918882017"/>
			<point x="1160" y="327.8918882017"/>
			<point x="1178" y="271.8918882017" type="curve" smooth="yes"/>
			<point x="1195" y="220.8918882017"/>
			<point x="1192" y="168.8918882017"/>
			<point x="1122" y="168.8918882017" type="curve" smooth="yes"/>
			<point x="1080" y="168.8918882017"/>
			<point x="1042" y="185.8918882017"/>
			<point x="1019" y="225.8918882017" type="curve" smooth="yes"/>
			<point x="989" y="277.8918882017"/>
			<point x="983" y="337.8918882017"/>
			<point x="981" y="401.8918882017" type="curve" smooth="yes"/>
		</contour>
	</outline>
</glyph>
<glyph name="at.case" format="2">
	<advance width="924"/>
	<outline>
		<contour>
			<point x="534" y="494.6632711785" type="curve" smooth="yes"/>
			<point x="493" y="481.6632711785"/>
			<point x="454" y="443.6632711785"/>
			<point x="454" y="409.6632711785" type="curve" smooth="yes"/>
			<point x="454" y="391.6632711785"/>
			<point x="461" y="375.6632711785"/>
			<point x="475" y="363.6632711785" type="curve"/>
			<point x="353" y="462.6632711785" type="line"/>
			<point x="376" y="448.6632711785"/>
			<point x="393" y="445.6632711785"/>
			<point x="411" y="445.6632711785" type="curve" smooth="yes"/>
			<point x="427" y="445.6632711785"/>
			<point x="435" y="458.6632711785"/>
			<point x="459" y="486.6632711785" type="curve" smooth="yes"/>
			<point x="489" y="523.6632711785"/>
			<point x="523" y="548.6632711785"/>
			<point x="575" y="548.6632711785" type="curve" smooth="yes"/>
			<point x="610" y="548.6632711785"/>
			<point x="641" y="535.6632711785"/>
			<point x="663" y="503.6632711785" type="curve" smooth="yes"/>
			<point x="694" y="457.6632711785"/>
			<point x="704" y="457.6632711785"/>
			<point x="712" y="457.6632711785" type="curve"/>
			<point x="717" y="457.6632711785"/>
			<point x="720" y="465.6632711785"/>
			<point x="720" y="471.6632711785" type="curve" smooth="yes"/>
			<point x="720" y="576.6632711785"/>
			<point x="635" y="746.6632711785"/>
			<point x="515" y="746.6632711785" type="curve" smooth="yes"/>
			<point x="354" y="746.6632711785"/>
			<point x="204" y="600.6632711785"/>
			<point x="204" y="451.6632711785" type="curve" smooth="yes"/>
			<point x="204" y="282.6632711785"/>
			<point x="358" y="198.6632711785"/>
			<point x="515" y="198.6632711785" type="curve" smooth="yes"/>
			<point x="653" y="198.6632711785"/>
			<point x="709" y="236.6632711785"/>
			<point x="749" y="236.6632711785" type="curve" smooth="yes"/>
			<point x="802" y="236.6632711785"/>
			<point x="833" y="197.6632711785"/>
			<point x="833" y="151.6632711785" type="curve" smooth="yes"/>
			<point x="833" y="117.6632711785"/>
			<point x="813" y="85.6632711785"/>
			<point x="775" y="70.6632711785" type="curve" smooth="yes"/>
			<point x="705" y="43.6632711785"/>
			<point x="636" y="29.6632711785"/>
			<point x="515" y="29.6632711785" type="curve" smooth="yes"/>
			<point x="254" y="29.6632711785"/>
			<point x="35" y="190.6632711785"/>
			<point x="35" y="451.6632711785" type="curve" smooth="yes"/>
			<point x="35" y="680.6632711785"/>
			<point x="262" y="916.6632711785"/>
			<point x="515" y="916.6632711785" type="curve" smooth="yes"/>
			<point x="761" y="916.6632711785"/>
			<point x="889" y="628.6632711785"/>
			<point x="889" y="471.6632711785" type="curve" smooth="yes"/>
			<point x="889" y="350.6632711785"/>
			<point x="817" y="288.6632711785"/>
			<point x="733" y="288.6632711785" type="curve" smooth="yes"/>
			<point x="683" y="288.6632711785"/>
			<point x="615" y="298.6632711785"/>
			<point x="539" y="407.6632711785" type="curve"/>
			<point x="592" y="404.6632711785" type="line"/>
			<point x="559" y="335.6632711785"/>
			<point x="511" y="295.6632711785"/>
			<point x="433" y="295.6632711785" type="curve" smooth="yes"/>
			<point x="352" y="295.6632711785"/>
			<point x="300" y="335.6632711785"/>
			<point x="300" y="431.6632711785" type="curve" smooth="yes"/>
			<point x="300" y="546.6632711785"/>
			<point x="427" y="659.6632711785"/>
			<point x="504" y="659.6632711785" type="curve" smooth="yes"/>
			<point x="560" y="659.6632711785"/>
			<point x="589" y="622.6632711785"/>
			<point x="589" y="575.6632711785" type="curve" smooth="yes"/>
			<point x="589" y="540.6632711785"/>
			<point x="568" y="506.6632711785"/>
		</contour>
	</outline>
</glyph>
